<svg width="40" height="40" viewBox="0 0 40 40" fill="none" xmlns="http://www.w3.org/2000/svg">
<path d="M29.4334 13.3333L20.0001 3.91669L10.5667 13.3333C7.96675 15.9333 6.66675 19.4 6.66675 22.7333C6.66675 26.0667 7.96675 29.5833 10.5667 32.1833C13.1667 34.7833 16.5834 36.1 20.0001 36.1C23.4167 36.1 26.8334 34.7833 29.4334 32.1833C32.0334 29.5833 33.3334 26.0667 33.3334 22.7333C33.3334 19.4 32.0334 15.9333 29.4334 13.3333ZM10.0001 23.3333C10.0167 20 11.0334 17.8833 12.9334 16L20.0001 8.78335L27.0667 16.0833C28.9667 17.95 29.9834 20 30.0001 23.3333C30.0001 23.3333 27.0583 25 25.0001 25C22.9418 25 20.0001 23.3333 20.0001 23.3333C20.0001 23.3333 17.0583 21.6667 15.0001 21.6667C12.9418 21.6667 10.0001 23.3333 10.0001 23.3333Z" fill="#717587"/>
</svg>